<svg width="24" height="24" viewBox="0 0 24 24" fill="none" xmlns="http://www.w3.org/2000/svg">
<path fill-rule="evenodd" clip-rule="evenodd" d="M12 0C5.37101 0 0 5.37491 0 11.9978C0 18.2934 4.85696 23.4609 11.0266 23.9567V24H12C18.629 24 24 18.6251 24 12.0022C24 5.37975 18.6295 0 12 0ZM14.6516 21.7002C13.8988 21.9055 13.1107 22.0256 12.2985 22.0492H12C10.6456 22.0492 9.35337 21.781 8.17375 21.2947C9.31589 17.1794 12.4121 14.2317 15.9559 12.9146C16.5675 15.8785 16.1236 19.0547 14.6516 21.7002ZM15.4163 11.04C11.3716 12.4968 7.83913 15.7784 6.41976 20.3582C3.72338 18.5548 1.94675 15.4824 1.94675 11.9978C1.94675 10.7621 2.16994 9.57831 2.57825 8.48452C3.79532 9.09094 5.09671 9.5199 6.43503 9.75844C8.13986 10.071 9.88657 10.0606 11.5864 9.75412C12.554 9.57944 13.4986 9.3012 14.4044 8.93044C14.8075 9.60063 15.1466 10.3068 15.4163 11.04ZM17.8323 12.3788C18.4168 15.0767 18.2395 17.9357 17.3068 20.5404C20.0742 18.817 21.9426 15.7861 22.0485 12.3139C20.6728 12.0645 19.2387 12.0949 17.8323 12.3788ZM21.9132 10.3212C20.3897 10.1072 18.8229 10.1767 17.2925 10.5036C16.9911 9.65802 16.6106 8.84342 16.1573 8.06991C17.4147 7.3437 18.563 6.42968 19.5501 5.3639C20.7573 6.73654 21.5965 8.44063 21.9132 10.3212ZM6.77898 7.84264C5.61636 7.63565 4.4871 7.26251 3.43327 6.73584C4.33961 5.26412 5.61472 4.0434 7.12995 3.20272L7.14164 3.2064L7.14208 3.20654L7.14214 3.20656L7.14216 3.20656C7.30723 3.25851 7.46483 3.30811 7.61658 3.36258C7.67257 3.38396 7.72739 3.40475 7.78098 3.42506L7.78182 3.42538L7.78187 3.4254L7.7819 3.42541C8.02797 3.51871 8.24771 3.60202 8.43127 3.68712L8.48366 3.71331L8.49614 3.71912C8.61206 3.77303 8.77908 3.85264 8.92961 3.92441C9.00959 3.96259 9.08497 3.99851 9.14553 4.02716L9.14778 4.0284C9.19841 4.05559 9.24093 4.07843 9.28057 4.10205C9.31282 4.12298 9.34162 4.13993 9.35707 4.14896C9.38531 4.1655 9.41433 4.18185 9.43826 4.19516C9.45869 4.20653 9.47875 4.21759 9.49379 4.22584L9.50137 4.23L9.51738 4.23885L9.51941 4.24001C9.54172 4.25288 9.56879 4.26833 9.59966 4.28595C9.66584 4.32371 9.74951 4.37145 9.84138 4.42523C9.90614 4.46318 9.96674 4.49936 10.0162 4.53C10.0529 4.55282 10.0729 4.56607 10.0805 4.5711L10.0809 4.5714C10.084 4.57348 10.0848 4.57396 10.0835 4.573L10.1262 4.60534L10.1736 4.6335C10.2459 4.67641 10.3171 4.7257 10.406 4.78721L10.4061 4.78723L10.4061 4.78725L10.4065 4.78751C10.447 4.8156 10.4913 4.84624 10.5411 4.87999L10.5748 4.9029L10.6036 4.9191C10.6035 4.91913 10.604 4.91948 10.6051 4.92019C10.6057 4.92064 10.6066 4.92123 10.6077 4.92199C10.6155 4.92719 10.6342 4.93983 10.6669 4.96324C10.7172 4.99924 10.7779 5.04443 10.8447 5.09468L10.9239 5.1543C10.9645 5.18501 11.0058 5.21614 11.0409 5.24239C11.0872 5.27708 11.1439 5.31919 11.1951 5.35466C11.9421 5.92595 12.6249 6.57828 13.2328 7.29729C12.586 7.53394 11.9194 7.71612 11.2407 7.83866C9.76121 8.1054 8.25 8.1126 6.78408 7.84358L6.78153 7.84309L6.77898 7.84264ZM12 1.9464C14.3075 1.9464 16.4333 2.72466 18.1299 4.03257C17.2404 4.99495 16.1987 5.81456 15.0581 6.45596C14.274 5.45928 13.3668 4.56193 12.3553 3.79144L12.3309 3.77284L12.3055 3.75593L12.2986 3.75113C12.2932 3.74731 12.286 3.74216 12.2768 3.73546C12.2581 3.72189 12.235 3.70476 12.2072 3.68398C12.1757 3.66043 12.1442 3.63661 12.1103 3.61102L12.1102 3.61097L12.1032 3.60572C12.0757 3.58496 12.0466 3.56299 12.0148 3.53905C11.9458 3.48722 11.8702 3.43084 11.8008 3.38108C11.7523 3.3463 11.6825 3.29711 11.6113 3.25373L11.5661 3.22247L11.5658 3.22229L11.5658 3.22228C11.4731 3.1581 11.3341 3.06181 11.2077 2.98415C11.0895 2.90132 10.9298 2.80695 10.8252 2.74569C10.7239 2.68637 10.6148 2.62412 10.5471 2.58547L10.5466 2.58517L10.4953 2.55583C10.4828 2.54855 10.472 2.54251 10.4675 2.54001L10.4675 2.54L10.4672 2.53987L10.4666 2.53953L10.4403 2.52499L10.4314 2.52009C10.4163 2.51178 10.4012 2.50346 10.3855 2.4947C10.3675 2.4847 10.353 2.47644 10.3423 2.47026L10.335 2.46514L10.3092 2.44936C10.2157 2.39223 10.1183 2.34006 10.0654 2.31174L10.0643 2.31113L10.0459 2.30127L10.0233 2.28909L10 2.27813C9.95358 2.2562 9.88491 2.22349 9.80694 2.18632C10.5128 2.02925 11.2467 1.9464 12 1.9464Z" fill="#EA4C89"/>
</svg>
